<?xml version="1.0" encoding="UTF-8"?>
<svg width="81px" height="56px" viewBox="0 0 81 56" version="1.1" xmlns="http://www.w3.org/2000/svg" xmlns:xlink="http://www.w3.org/1999/xlink">
    <!-- Generator: Sketch 52.4 (67378) - http://www.bohemiancoding.com/sketch -->
    <title>Slice 1</title>
    <desc>Created with Sketch.</desc>
    <g id="Page-1" stroke="none" stroke-width="1" fill="none" fill-rule="evenodd">
        <g id="Watermelon-a" transform="translate(1.000000, 1.000000)">
            <path d="M77.90603,26.86048 C77.90603,41.49481 60.54736,53.35828 39.13436,53.35828 C17.72135,53.35828 0.36268,41.49481 0.36268,26.86048 C0.36268,12.22615 17.72135,0.36268 39.13436,0.36268 C60.54736,0.36268 77.90603,12.22615 77.90603,26.86048 Z" id="path4727-5" stroke="#231F20" stroke-width="2.72534895" fill="#4E9A06"></path>
            <path d="M39.14064,1.40312 C35.44515,1.40312 31.87664,1.78139 28.50674,2.46651 C26.91255,3.04104 25.35226,3.65553 23.78965,4.32063 C22.3473,5.03985 20.98063,5.93656 19.61788,6.80187 C17.76641,8.14885 15.81849,9.37182 13.97373,10.72824 C11.83416,12.37662 9.84424,14.22045 7.89332,16.09972 C7.05021,16.90961 6.28245,17.77775 5.57568,18.7173 C4.41665,20.19623 3.30671,21.72106 2.27644,23.29806 C2.24624,23.44491 2.22114,23.58667 2.19464,23.73432 C3.29609,22.35912 4.43894,21.0133 5.54841,19.64436 C7.00055,17.96134 8.34856,16.1677 10.04737,14.7364 C11.35791,13.54792 12.71422,12.39733 14.19187,11.43717 C15.24803,10.73016 16.24969,9.93458 17.35477,9.31038 C19.35058,8.1228 21.39107,6.97144 23.43519,5.87482 C24.26872,5.45932 25.06406,4.91339 25.97096,4.67509 C28.62739,3.73528 31.36914,3.13662 34.09636,2.46651 C35.55155,2.06759 37.06717,1.944 38.56805,2.05752 C40.79426,2.21273 42.98685,2.61301 45.16652,3.09364 C46.88032,3.50678 48.61897,3.93879 50.31988,4.40243 C53.52957,5.57201 56.68232,6.82906 59.80859,8.21973 C60.66072,8.66689 61.49084,9.12194 62.28984,9.66485 C64.49938,11.05959 66.46566,12.8 68.50658,14.43647 C69.58623,15.35444 70.60183,16.38584 71.53315,17.46304 C72.67565,18.71412 73.7051,20.07513 74.88692,21.28034 C75.10676,21.55319 75.20018,22.44008 75.67765,22.09834 C75.2804,21.03908 74.35472,20.31757 73.71447,19.42623 C72.85871,18.30925 72.0326,17.1764 71.04236,16.18152 C70.17699,15.1955 69.31074,14.19655 68.31571,13.34581 C66.96205,12.05585 65.49573,10.9182 64.00762,9.80118 C62.43571,8.72137 60.78679,7.75696 59.12693,6.82914 C57.52404,5.98852 55.92039,5.11293 54.24624,4.42969 C52.94219,3.83711 51.58024,3.38401 50.21081,2.98457 C48.96211,2.59733 47.71055,2.22823 46.44805,1.89392 C44.08304,1.57201 41.64409,1.40312 39.14064,1.40312 Z M36.87753,4.64783 C36.12479,4.68883 35.39237,4.8593 34.64168,4.94776 C32.49049,5.3102 30.33446,5.73909 28.26134,6.44741 C26.81374,6.89124 25.3957,7.37778 23.98051,7.9198 C22.57781,8.51145 21.16708,9.07335 19.83601,9.82845 C17.72105,10.9523 15.62071,12.12402 13.61927,13.45488 C11.95878,14.65336 10.35325,15.93872 8.79311,17.27218 C6.98412,18.83145 5.29167,20.52668 3.66703,22.2892 C3.29468,22.66306 2.64414,22.94627 2.60364,23.54346 C2.63294,23.97511 2.9827,24.04219 3.2853,23.92519 C2.98495,24.09706 2.66553,24.34656 2.60364,24.66138 C2.3636,24.80295 2.15011,24.98233 2.14011,25.31577 C2.32544,25.91732 3.16549,25.66774 3.58523,25.47937 C4.41074,25.10974 5.29957,25.04239 6.14827,24.74318 C7.90113,24.16994 9.61796,23.4978 11.27436,22.67093 C12.78081,21.97158 14.24397,21.11409 15.71878,20.35328 C17.55314,19.6374 19.40984,19.02548 21.33567,18.6355 C22.49922,18.36928 23.7083,18.22711 24.8803,18.00837 C27.75538,17.55549 30.63805,17.38961 33.52376,17.02678 C35.2186,16.8232 36.92199,16.59967 38.62258,16.45419 C39.83108,16.31951 41.06483,16.30765 42.27628,16.20879 C43.20695,16.12919 44.12514,16.14449 45.05745,16.15429 C47.23173,16.10119 49.4024,16.18679 51.57413,16.29062 C53.36102,16.31192 55.12115,16.64228 56.89108,16.86321 C58.20571,17.07921 59.55816,17.23541 60.81745,17.70847 C62.00624,18.08004 63.14034,18.56555 64.28028,19.07179 C65.47307,19.61274 66.62319,20.26349 67.77038,20.89864 C69.35054,21.7288 70.87342,22.65313 72.48747,23.40715 C73.13657,23.62057 73.78715,23.88803 74.34159,24.30695 C74.70184,24.7625 75.61996,24.36685 75.10505,23.87068 C75.33615,23.73008 75.36685,23.37056 74.94145,23.27082 C73.37146,22.18226 71.92555,20.8779 70.36069,19.78072 C69.03731,18.77551 67.67482,17.84227 66.298,16.91775 C64.25488,15.47237 61.8859,14.67398 59.61772,13.70031 C57.83156,12.94272 55.96207,12.40133 54.08264,11.95526 C51.9019,11.47351 49.72625,11.03828 47.51143,10.75553 C46.02469,10.54196 44.51189,10.32643 43.01247,10.23747 C40.90135,10.08709 38.80424,9.80232 36.68666,9.77394 C36.24628,9.76794 35.81792,9.78584 35.37787,9.80114 C33.36865,10.14081 31.36879,10.55582 29.37926,11.00086 C27.41955,11.44022 25.40255,11.71504 23.51698,12.44598 C20.71488,13.6036 17.88327,14.65691 15.11892,15.90881 C13.92061,16.49321 12.7491,17.13317 11.68335,17.9538 C8.97256,19.88387 6.24158,21.81834 3.55796,23.78881 C3.53326,23.79921 3.50206,23.80421 3.47626,23.81601 C3.58293,23.72911 3.65923,23.63173 3.69439,23.48882 C4.08085,22.90179 4.56872,22.36694 5.11224,21.93463 C7.1019,20.20372 9.11614,18.48824 11.24719,16.94487 C12.00744,16.37191 12.78184,15.8128 13.61936,15.36342 C16.10305,13.93183 18.66723,12.69862 21.28123,11.54612 C22.89482,10.76822 24.56322,10.02063 26.29825,9.58294 C27.87843,9.17213 29.50655,8.96594 31.09714,8.60135 C32.74022,8.21671 34.42198,8.06058 36.0869,7.81062 C37.32895,7.71222 38.55986,7.60533 39.79513,7.83782 C40.96765,8.01924 42.15813,8.19459 43.33976,8.30135 C45.47034,8.51396 47.58239,8.89458 49.69284,9.25567 C51.81677,9.54059 53.86856,10.09639 55.90958,10.75532 C58.57006,11.68352 61.21628,12.73361 63.68051,14.13636 C65.39907,15.03538 67.01042,16.13787 68.53394,17.3538 C69.52696,18.08882 70.39831,18.98783 71.36964,19.75324 C72.41171,20.68125 73.52972,21.52405 74.42348,22.61622 C74.57075,23.08689 75.5293,23.72244 75.62321,22.91615 C75.15164,22.32519 74.5614,21.87974 74.09629,21.28016 C73.45773,20.51669 72.68536,19.86623 71.99677,19.15338 C70.92152,18.11783 69.87907,17.04877 68.75207,16.07228 C67.70053,15.14731 66.54931,14.30932 65.42556,13.48197 C64.13424,12.71884 62.92922,11.84891 61.581,11.19159 C59.17135,9.92781 56.66479,8.80549 54.08273,7.97415 C51.30318,7.05027 48.51272,6.21466 45.63014,5.71104 C44.21944,5.46681 42.82034,5.20956 41.40385,5.00211 C40.16315,4.83914 38.88823,4.73619 37.64108,4.64765 C37.38781,4.62565 37.12852,4.63395 36.87762,4.64765 L36.87753,4.64783 Z M53.91904,18.6355 C53.19436,18.6255 52.45975,18.6415 51.73773,18.6627 C48.85475,18.7697 46.006,18.97992 43.1488,19.3989 C40.31617,19.68473 37.45149,19.95919 34.61441,20.18962 C31.01451,20.415 27.41545,20.43264 23.81691,20.68042 C22.38554,20.81353 20.93671,20.99586 19.53608,21.33481 C18.4516,21.55077 17.3452,21.71251 16.31865,22.15281 C14.94526,22.61144 13.64379,23.24319 12.33775,23.87059 C10.54224,24.6308 8.6473,25.11293 6.72087,25.34298 C5.74175,25.44503 4.78225,25.63471 3.80336,25.72471 C3.36299,25.75981 2.49105,25.49414 2.41277,26.10644 C2.57975,26.35313 2.78058,26.44827 3.0399,26.48817 C3.4721,26.55467 4.02366,26.44887 4.43049,26.56997 C6.60284,26.80747 8.75044,27.01035 10.89263,27.46976 C12.67069,27.81787 14.41908,28.36586 16.18231,28.77855 C16.83724,28.89245 17.47799,29.02412 18.1455,29.02395 C19.23212,29.07145 20.34931,29.17956 21.41747,28.91488 C22.10239,28.70684 22.54098,28.08577 23.10798,27.68789 C23.70576,27.31111 24.4515,27.30238 25.1257,27.3607 C27.17494,27.49876 29.20914,27.72482 31.26064,27.82423 C33.49094,27.86853 35.71225,27.72723 37.94092,27.66063 C39.38996,27.58543 40.83186,27.41111 42.27628,27.2789 C42.92463,27.13635 43.48385,26.7771 44.07586,26.48817 C44.8604,25.97102 45.72607,25.5479 46.44804,24.93399 C47.21029,24.45775 48.08731,24.26671 48.92929,24.00693 C49.62207,23.70945 50.32478,23.49219 51.05607,23.32527 C52.43884,22.9322 53.8286,22.57253 55.2551,22.39821 C56.53908,22.11709 57.85581,22.10915 59.15419,21.93468 C59.94725,21.85678 60.75954,21.71886 61.55364,21.85288 C62.62637,21.93758 63.57639,22.53338 64.55295,22.94354 C65.87903,23.5851 67.16614,24.24711 68.56111,24.71586 C69.97286,25.23763 71.50826,25.16175 72.97827,25.34299 C74.08644,25.36079 75.19401,25.31939 76.30477,25.26119 C76.30077,25.21569 76.28197,25.17029 76.27757,25.12486 C74.57864,24.73611 72.86386,24.41862 71.20602,23.8706 C68.82761,22.96362 66.60791,21.65859 64.30761,20.57137 C63.08458,20.05157 61.88906,19.47621 60.57211,19.26258 C59.08929,18.99042 57.57211,18.84971 56.07315,18.71725 C55.35171,18.68015 54.64379,18.64515 53.9191,18.63545 L53.91904,18.6355 Z M3.0399,26.48823 C2.92877,26.46243 2.82483,26.42513 2.7127,26.40643 C1.99579,26.5977 2.42431,27.63348 3.0399,27.55162 C3.83391,27.95915 4.64024,28.38951 5.38481,28.88768 C8.8722,30.96959 12.34851,33.05102 15.90965,34.99536 C17.5427,36.02282 19.31978,36.74131 21.11754,37.3948 C23.33577,38.07445 25.61094,38.60534 27.85234,39.19439 C30.01824,39.69008 32.19461,40.11706 34.39628,40.39411 C36.2388,40.45431 38.06284,40.34811 39.9041,40.28504 C41.47383,40.19784 43.05339,40.14876 44.62119,40.03964 C46.11861,39.87144 47.6245,39.84867 49.12015,39.65791 C50.69105,39.51751 52.25527,39.30254 53.80998,39.03079 C55.66986,38.6934 57.44772,38.03283 59.23599,37.42207 C60.278,37.01028 61.33873,36.64917 62.3171,36.08601 C62.96487,35.71779 63.63401,35.35852 64.19848,34.85902 C65.35605,34.03792 66.39874,33.07124 67.44319,32.10512 C68.09983,31.49052 68.70079,30.80846 69.3791,30.22373 C70.38934,29.60148 71.38219,28.95002 72.35114,28.26055 C72.60774,28.09359 72.86071,27.91583 73.1146,27.74249 C73.64744,27.43609 74.16633,27.12759 74.69605,26.81543 C75.07049,26.70267 75.52518,26.58193 75.65038,26.2701 C75.87666,26.13523 76.10321,25.99329 76.33204,25.86111 C76.33004,25.83391 76.33404,25.80651 76.33204,25.77931 C76.11402,25.90549 75.89681,26.03798 75.67765,26.16104 C75.68665,26.08924 75.67677,26.00515 75.65045,25.91564 C75.1471,25.34562 74.45076,25.97964 73.85087,25.99744 C72.09104,26.30199 70.27776,26.56285 68.50665,26.78816 C67.86102,26.78416 67.19938,26.95147 66.598,26.65183 C65.43259,26.16193 64.68402,25.00401 63.54416,24.47052 C63.19844,24.22316 62.75517,24.15555 62.34444,24.22512 C61.26041,24.6714 60.32675,25.41828 59.59053,26.3519 C59.06372,26.9626 58.46831,27.5285 57.90001,28.09695 C57.4319,28.65107 56.92537,29.19122 56.18223,29.26941 C55.02905,29.60685 53.83685,29.73259 52.66486,29.97834 C52.02161,30.11866 51.52135,30.58073 51.19247,31.15079 C50.78396,31.83816 50.44259,32.61965 49.77462,33.08671 C49.06426,33.65319 48.12644,33.66074 47.26611,33.6593 C45.96802,33.6663 44.65282,33.47762 43.36701,33.7411 C41.79667,33.93632 40.22621,34.07691 38.64992,34.20463 C36.97069,34.42002 35.24764,34.38978 33.57836,34.09556 C31.25529,33.79472 28.92521,33.64906 26.59816,33.38663 C25.30027,33.27703 24.00242,33.11154 22.72633,32.84131 C20.1347,32.16504 17.57223,31.40094 15.0372,30.52366 C13.11598,29.78992 11.24573,28.87812 9.31125,28.17875 C7.86079,27.60932 6.37333,27.19443 4.83956,26.95176 C4.23369,26.85456 3.63498,26.62639 3.03997,26.48823 L3.0399,26.48823 Z M76.35931,27.41529 C75.10644,28.922 73.86107,30.44141 72.59654,31.94151 C71.41444,33.31888 70.23933,34.71423 69.0519,36.08601 C68.18081,36.96366 67.31602,37.85678 66.32526,38.59452 C64.87657,39.77712 63.35143,40.84188 61.71724,41.73016 C60.18661,42.57318 58.66122,43.44985 57.00015,43.99327 C54.07979,45.04258 51.1689,46.22359 48.11129,46.77445 C46.34465,47.18494 44.5426,47.49131 42.73981,47.67424 C40.86376,47.86223 39.03719,48.22881 37.15019,48.2741 C35.68741,48.3293 34.22265,48.00152 32.78756,47.75604 C30.77679,47.37221 28.82102,46.81528 26.84348,46.28365 C25.8224,45.96341 24.76489,45.67108 23.78965,45.22026 C22.44795,44.49915 21.15639,43.6953 19.80875,42.98441 C17.70319,41.80527 15.62713,40.57511 13.6738,39.13985 C10.33459,36.22498 7.06267,33.17144 4.04876,29.89653 L1.92198,27.63342 C1.93468,27.92627 1.94948,28.21566 1.97648,28.50594 C1.98048,28.51194 1.97248,28.52674 1.97648,28.53314 C2.07812,28.68746 2.1961,28.83566 2.27641,28.99667 C3.53796,31.03287 4.86304,33.02645 6.39364,34.85895 C7.64937,36.46234 8.99549,37.98021 10.45634,39.38517 C11.94356,40.86387 13.37907,42.42127 15.06436,43.666 C16.40617,44.70274 17.76045,45.71028 19.20886,46.58351 C20.80632,47.59045 22.42861,48.55736 24.11681,49.39195 C26.3335,50.33325 28.65598,51.00341 30.96068,51.68233 C33.59354,52.08575 36.32964,52.30946 39.14061,52.30946 C39.58136,52.30946 40.01235,52.29256 40.4494,52.28226 C40.5491,52.26926 40.64984,52.26886 40.74933,52.25506 C42.90395,51.84334 45.0936,51.57409 47.23874,51.10987 C49.75919,50.44144 52.18078,49.50725 54.62794,48.60136 C56.17649,48.00337 57.64978,47.23119 59.15416,46.52911 C62.28663,44.85139 65.24426,42.75345 67.79762,40.23057 C68.66624,39.35125 69.51745,38.45774 70.27886,37.47666 C71.36709,36.1851 72.41208,34.85088 73.27817,33.3867 C74.35181,31.73619 75.33561,30.03301 76.30474,28.31514 C76.32934,28.01589 76.34994,27.71728 76.35931,27.41529 Z" id="path6744" fill="#356804" fill-rule="nonzero"></path>
            <path d="M17.0175,12.7633 C13.63354,14.68474 12.06512,17.62759 10.83734,16.17929 C9.60952,14.73094 11.35821,12.00076 14.74219,10.07932 C18.1252,8.15845 21.86231,7.77379 23.09012,9.22215 C24.31795,10.67048 20.39953,10.843 17.01751,12.76333 L17.0175,12.7633 Z" id="Shine-2" fill="#BFEF90"></path>
        </g>
    </g>
</svg>