<?xml version="1.0" encoding="iso-8859-1"?>
<!-- Generator: Adobe Illustrator 19.0.0, SVG Export Plug-In . SVG Version: 6.00 Build 0)  -->
<svg version="1.1" id="Capa_1" xmlns="http://www.w3.org/2000/svg" xmlns:xlink="http://www.w3.org/1999/xlink" x="0px" y="0px"
	 viewBox="0 0 60 60" style="enable-background:new 0 0 60 60;" xml:space="preserve">
<g>
	<g>
		<path d="M59,0H1C0.4,0,0,0.4,0,1v58c0,0.6,0.4,1,1,1h58c0.6,0,1-0.4,1-1V1C60,0.4,59.6,0,59,0z M58,4H39v2h19v48H39v2h19v2H2v-2
			h33v-2H2V6h33V4H2V2h56V4z"/>
		<path d="M10.9,9.7c-0.1-0.3-0.5-0.6-0.9-0.6S9.2,9.3,9.1,9.7l-2.9,7.6C6.1,17.5,6,17.7,6,18v26v6c0,0.6,0.4,1,1,1h6
			c0.6,0,1-0.4,1-1v-6V18c0-0.3-0.1-0.5-0.2-0.7L10.9,9.7z M9.9,12.8l1.6,4.2H8.4L9.9,12.8z M8,19h1v24H8V19z M12,49H8v-4h4V49z
			 M12,43h-1V19h1V43z"/>
		<path d="M29,9H19c-0.6,0-1,0.4-1,1v40c0,0.6,0.4,1,1,1h10c0.6,0,1-0.4,1-1V10C30,9.4,29.6,9,29,9z M28,49h-8v-3h3v-2h-3v-3h5v-2
			h-5v-3h3v-2h-3v-3h5v-2h-5v-3h3v-2h-3v-3h5v-2h-5v-3h3v-2h-3v-3h8V49z"/>
		<path d="M34,10v10c0,0.6,0.4,1,1,1h8v3h-8c-0.6,0-1,0.4-1,1v10c0,0.6,0.4,1,1,1h8v3h-8c-0.6,0-1,0.4-1,1v10c0,0.6,0.4,1,1,1h18
			c0.6,0,1-0.4,1-1V40c0-0.6-0.4-1-1-1h-8v-3h8c0.6,0,1-0.4,1-1V25c0-0.6-0.4-1-1-1h-8v-3h8c0.6,0,1-0.4,1-1V10c0-0.6-0.4-1-1-1H35
			C34.4,9,34,9.4,34,10z M52,41v8H36v-8H52z M52,26v8H36v-8H52z M36,11h16v8H36V11z"/>
		<rect x="39" y="14" width="2" height="2"/>
		<rect x="43" y="14" width="2" height="2"/>
		<rect x="47" y="14" width="2" height="2"/>
		<rect x="39" y="29" width="2" height="2"/>
		<rect x="43" y="29" width="2" height="2"/>
		<rect x="47" y="29" width="2" height="2"/>
		<rect x="39" y="44" width="2" height="2"/>
		<rect x="43" y="44" width="2" height="2"/>
		<rect x="47" y="44" width="2" height="2"/>
	</g>
</g>
<g>
</g>
<g>
</g>
<g>
</g>
<g>
</g>
<g>
</g>
<g>
</g>
<g>
</g>
<g>
</g>
<g>
</g>
<g>
</g>
<g>
</g>
<g>
</g>
<g>
</g>
<g>
</g>
<g>
</g>
</svg>
