<svg version="1.1" xmlns="http://www.w3.org/2000/svg" xmlns:xlink="http://www.w3.org/1999/xlink" width="420.88061" height="361.27721" viewBox="0,0,420.88061,361.27721"><g transform="translate(23.14657,-9.39845)"><g data-paper-data="{&quot;isPaintingLayer&quot;:true}" fill="none" fill-rule="nonzero" stroke="#00ffda" stroke-width="30" stroke-linecap="round" stroke-linejoin="miter" stroke-miterlimit="10" stroke-dasharray="" stroke-dashoffset="0" style="mix-blend-mode: normal"><path d="M-8.14657,27.59761c0,0 235.39406,-4.97181 244.78179,-3.19916c38.16439,7.20644 100.43255,58.6174 130.82144,70.36273c5.51254,2.1306 20.39271,117.16982 17.86952,113.45549c-0.90232,-1.32828 0.80498,8.28841 -5.78123,13.00313c-3.03024,2.16919 -14.51676,0.93576 -16.86579,1.34071c-9.05323,1.5607 -11.96145,-10.45537 -13.80869,-12.79581c-16.44772,-20.83903 -25.62513,-50.7681 -45.22744,-40.52475c-18.63033,9.73545 -94.3535,-48.8605 -113.4165,-30.27475c-19.68948,19.19655 -19.45885,94.71438 -39.94025,109.87329c-33.47338,24.77468 -87.46315,8.08968 -101.37581,22.00234c-21.21117,21.21117 -11.26126,84.83483 -11.26126,84.83483"/></g></g></svg>