<?xml version="1.0" encoding="iso-8859-1"?>
<!-- Generator: Adobe Illustrator 19.0.0, SVG Export Plug-In . SVG Version: 6.00 Build 0)  -->
<svg xmlns="http://www.w3.org/2000/svg" xmlns:xlink="http://www.w3.org/1999/xlink" version="1.1" id="Capa_1" x="0px" y="0px" viewBox="0 0 228.249 228.249" style="enable-background:new 0 0 228.249 228.249;" xml:space="preserve" width="512px" height="512px">
<path d="M227.709,4.945l-0.181-4.631l-4.632-0.171C222.736,0.138,218.906,0,212.824,0c-12.117,0-29.905,0.531-45.84,3.064  c-21.728,3.453-33.658,9.687-36.472,19.055l-0.854,2.843l26.069,26.372l-9.861,9.861l-36.77-36.77L91.42,42.103l36.77,36.77  l-6.01,6.01L92.128,54.83L74.45,72.508l30.052,30.052l-6.011,6.011L75.511,85.59l-17.678,17.678l22.981,22.981l-9.603,9.603  c-42.139,0.647-65.483,7.554-69.391,20.565l-1.454,4.844l51.717,14.896l14.494,52.093l4.871-1.437  c10.549-3.112,16.92-18.517,19.479-47.093c0.715-7.982,1.024-15.787,1.137-22.294l9.964-9.964l22.981,22.981l17.678-17.678  l-22.981-22.981l6.01-6.01l30.052,30.052l17.678-17.678l-30.052-30.052l6.01-6.01l36.77,36.769l17.678-17.678l-36.77-36.769  l9.738-9.738l26.024,26.327l2.868-0.846c11.282-3.329,18.111-19.961,20.877-50.848C228.497,25.972,227.742,5.794,227.709,4.945z   M182.525,35.9c-4.686,4.686-12.284,4.686-16.971,0s-4.686-12.284,0-16.971s12.284-4.686,16.971,0  C187.211,23.616,187.211,31.214,182.525,35.9z" fill="#933EC5"/>
<g>
</g>
<g>
</g>
<g>
</g>
<g>
</g>
<g>
</g>
<g>
</g>
<g>
</g>
<g>
</g>
<g>
</g>
<g>
</g>
<g>
</g>
<g>
</g>
<g>
</g>
<g>
</g>
<g>
</g>
</svg>
